<svg xmlns="http://www.w3.org/2000/svg" fill="none" viewBox="0 0 29 29"><defs/><path fill="#115E8C " fill-rule="evenodd" d="M14.5 0H8.406c-1.223 0-2.3.29-3.112.509-.165.044-.319.086-.46.121-1.051.42-1.892.841-2.522 1.682-.841.84-1.261 1.68-1.682 2.521C.21 5.673 0 6.935 0 8.406v12.188c0 1.223.29 2.3.509 3.112.044.165.086.319.121.46.42 1.051.841 1.892 1.682 2.522.84.63 1.68 1.261 2.521 1.682.84.42 2.102.63 3.573.63h12.188c1.223 0 2.3-.29 3.112-.509.165-.044.319-.086.46-.121 1.051-.42 1.892-.841 2.522-1.682.63-.84 1.261-1.68 1.682-2.521.42-.84.63-2.102.63-3.573V8.406c0-1.223-.29-2.3-.509-3.112a25.595 25.595 0 01-.121-.46c-.42-1.051-.841-1.892-1.682-2.522-.84-.841-1.68-1.261-2.521-1.682-.84-.42-2.102-.63-3.573-.63H14.5zm9.666 6.935c0 1.05-.84 1.68-1.681 1.68-.841 0-1.682-.84-1.682-1.68 0-1.051.84-1.682 1.681-1.682.841 0 1.682.63 1.682 1.682zm-9.667 12.608c-2.732 0-4.833-2.101-4.833-4.833s2.101-4.834 4.833-4.834 4.834 2.102 4.834 4.834c0 2.732-2.102 4.833-4.834 4.833zm0-12.398a7.534 7.534 0 00-7.565 7.565 7.534 7.534 0 007.565 7.565 7.534 7.534 0 007.566-7.565 7.534 7.534 0 00-7.566-7.565z" clip-rule="evenodd"/></svg>