<svg width="15" height="15" fill="none" xmlns="http://www.w3.org/2000/svg"><g clip-path="url(#clip0)" fill="#115E8C"><path d="M10.03 1.6L9.6.38a.54.54 0 00-.5-.37H5.89a.54.54 0 00-.5.37L4.96 1.6h-.15v2.14h5.36V1.61h-.15zm-2 1.08a.54.54 0 11-1.07 0v-.54a.54.54 0 011.08 0v.54z"/><path d="M12.86 1.6h-1.61V4.3c0 .3-.24.53-.54.53H4.3a.54.54 0 01-.54-.53V1.6h-1.6c-.3 0-.54.24-.54.53v12.32c0 .3.24.54.53.54h10.72c.3 0 .53-.24.53-.54V2.14c0-.3-.24-.53-.53-.53zM10.7 11.8H4.3a.54.54 0 010-1.08h6.42a.54.54 0 010 1.08zm0-2.15H4.3a.54.54 0 010-1.07h6.42a.54.54 0 110 1.07zm0-2.14H4.3a.54.54 0 010-1.07h6.42a.54.54 0 110 1.07z"/></g><defs><clipPath id="clip0"><path fill="#fff" d="M0 0h15v15H0z"/></clipPath></defs></svg>